<svg width="233" height="211" viewBox="0 0 233 211" fill="none" xmlns="http://www.w3.org/2000/svg">
<path d="M75.464 12.5697C75.464 12.5697 102.258 43.2857 159.942 8.1901C211.172 -22.978 233.12 47.4985 227.092 77.8205C219.283 117.1 169.536 139.514 185.185 169.618C200.833 199.723 129.414 229.28 103.301 185.48C70.8187 130.993 51.738 165.84 27.8136 160.881C10.6432 157.323 -15.7675 107.353 14.6165 80.545C40.1843 57.9871 31.0962 46.8584 27.724 36.5019C22.8604 21.5656 48.4972 -10.927 75.464 12.5697Z" fill="#F1F3F7"/>
<path d="M43.6069 163.418L182.031 163.194C183.252 163.192 184.461 162.949 185.589 162.48C186.716 162.011 187.74 161.324 188.603 160.459C189.465 159.594 190.148 158.568 190.614 157.439C191.079 156.31 191.318 155.1 191.316 153.879L191.178 68.3745C191.176 67.1532 190.933 65.9442 190.464 64.8167C189.995 63.6891 189.308 62.665 188.443 61.8028C187.578 60.9406 186.552 60.2572 185.423 59.7917C184.294 59.3261 183.084 59.0875 181.863 59.0895L42.5125 59.1077C37.7657 59.1077 33.9682 54.5643 34.139 50.6699V59.328L34.292 154.132C34.2939 155.353 34.5363 156.562 35.0055 157.69C35.4746 158.818 36.1613 159.842 37.0263 160.704C37.8912 161.566 38.9176 162.25 40.0467 162.715C41.1758 163.181 42.3856 163.42 43.6069 163.418Z" fill="#96CCB5"/>
<path d="M138.083 93.2103L191.429 93.1237C193.286 93.1207 195.068 93.8553 196.382 95.1659C197.697 96.4765 198.438 98.2558 198.441 100.112L198.476 122.115C198.479 123.971 197.745 125.753 196.434 127.068C195.124 128.383 193.344 129.123 191.488 129.126L138.142 129.213C137.787 129.213 137.446 129.073 137.194 128.822C136.943 128.571 136.801 128.231 136.8 127.876L136.746 94.5518C136.746 94.1966 136.886 93.8557 137.137 93.6041C137.388 93.3525 137.728 93.2108 138.083 93.2103Z" fill="#34DA97"/>
<path d="M155.408 119.427C159.959 119.427 163.649 115.737 163.649 111.185C163.649 106.633 159.959 102.944 155.408 102.944C150.856 102.944 147.166 106.633 147.166 111.185C147.166 115.737 150.856 119.427 155.408 119.427Z" fill="white"/>
<path d="M41.139 41.1937H160.711C162.567 41.1937 164.348 41.9312 165.66 43.244C166.973 44.5567 167.711 46.3372 167.711 48.1937V59.1088H43.135C40.7491 59.1088 38.461 58.161 36.7739 56.4739C35.0868 54.7869 34.139 52.4987 34.139 50.1128V48.1937C34.139 46.3372 34.8765 44.5567 36.1893 43.244C37.502 41.9312 39.2825 41.1937 41.139 41.1937Z" fill="#34DA97"/>
<path d="M134.216 49.0597C134.053 49.0598 133.896 49.0034 133.77 48.9C133.645 48.7966 133.559 48.6528 133.528 48.4932C133.497 48.3336 133.523 48.1681 133.6 48.0253C133.678 47.8825 133.803 47.7711 133.954 47.7104C133.982 47.6988 134.671 47.4216 135.936 46.9562C136.11 46.8921 136.303 46.8998 136.471 46.9777C136.64 47.0556 136.771 47.1972 136.835 47.3714C136.899 47.5457 136.891 47.7382 136.813 47.9068C136.735 48.0753 136.594 48.206 136.42 48.2701C135.175 48.728 134.484 49.0061 134.477 49.0087C134.394 49.0424 134.305 49.0597 134.216 49.0597Z" fill="#34DA97"/>
<path d="M163.511 210.255C163.023 210.255 162.526 210.245 162.033 210.225C161.94 210.222 161.85 210.201 161.766 210.163C161.682 210.124 161.606 210.07 161.543 210.002C161.48 209.935 161.431 209.855 161.399 209.769C161.367 209.682 161.352 209.59 161.356 209.498C161.36 209.406 161.382 209.315 161.42 209.231C161.459 209.147 161.514 209.072 161.582 209.01C161.65 208.947 161.73 208.899 161.817 208.868C161.903 208.836 161.996 208.822 162.088 208.826C163.471 208.882 164.855 208.855 166.235 208.746C166.327 208.739 166.419 208.75 166.506 208.778C166.594 208.806 166.675 208.852 166.745 208.911C166.815 208.971 166.872 209.043 166.914 209.125C166.956 209.207 166.981 209.296 166.989 209.388C166.996 209.48 166.985 209.572 166.957 209.659C166.929 209.747 166.884 209.828 166.824 209.898C166.764 209.968 166.692 210.025 166.61 210.067C166.528 210.109 166.439 210.134 166.347 210.142C165.419 210.217 164.464 210.254 163.511 210.255ZM157.85 209.832C157.816 209.832 157.782 209.83 157.749 209.825C156.383 209.627 154.964 209.355 153.532 209.018C153.351 208.975 153.195 208.863 153.097 208.705C152.999 208.547 152.968 208.357 153.011 208.176C153.053 207.995 153.166 207.839 153.324 207.741C153.482 207.644 153.672 207.613 153.853 207.655C155.245 207.983 156.624 208.247 157.95 208.439C158.125 208.465 158.284 208.555 158.395 208.693C158.506 208.831 158.561 209.006 158.548 209.182C158.535 209.359 158.456 209.524 158.327 209.644C158.197 209.765 158.027 209.832 157.85 209.832V209.832ZM170.476 209.535C170.303 209.535 170.136 209.471 170.008 209.355C169.879 209.239 169.798 209.08 169.78 208.908C169.762 208.736 169.808 208.563 169.91 208.423C170.011 208.283 170.161 208.186 170.331 208.15C171.681 207.861 173.01 207.485 174.311 207.022C174.486 206.96 174.678 206.97 174.846 207.049C175.013 207.129 175.143 207.272 175.205 207.447C175.267 207.622 175.257 207.814 175.177 207.982C175.098 208.15 174.955 208.279 174.78 208.341C173.421 208.824 172.033 209.218 170.623 209.519C170.574 209.529 170.525 209.534 170.476 209.534V209.535ZM149.609 207.914C149.538 207.914 149.468 207.903 149.401 207.882C148.1 207.476 146.741 207.008 145.358 206.489C145.184 206.424 145.043 206.292 144.966 206.123C144.89 205.954 144.883 205.761 144.948 205.588C145.014 205.414 145.145 205.273 145.314 205.196C145.483 205.119 145.676 205.113 145.85 205.178C147.208 205.688 148.542 206.148 149.818 206.546C149.977 206.596 150.114 206.701 150.203 206.843C150.291 206.985 150.326 207.154 150.301 207.319C150.276 207.485 150.192 207.636 150.065 207.745C149.938 207.854 149.777 207.914 149.609 207.914ZM178.432 206.714C178.274 206.714 178.121 206.661 177.998 206.564C177.874 206.466 177.787 206.33 177.75 206.176C177.714 206.023 177.73 205.862 177.796 205.719C177.863 205.576 177.975 205.46 178.116 205.389C179.351 204.764 180.55 204.069 181.707 203.309C181.784 203.257 181.87 203.222 181.961 203.204C182.052 203.186 182.145 203.186 182.236 203.205C182.326 203.223 182.412 203.26 182.489 203.311C182.565 203.363 182.631 203.43 182.682 203.507C182.732 203.584 182.767 203.671 182.784 203.762C182.801 203.853 182.8 203.946 182.781 204.036C182.762 204.127 182.725 204.213 182.672 204.289C182.62 204.365 182.553 204.43 182.475 204.48C181.274 205.269 180.029 205.99 178.747 206.639C178.649 206.688 178.541 206.714 178.432 206.714ZM141.671 204.955C141.577 204.955 141.483 204.936 141.397 204.899C140.16 204.372 138.851 203.787 137.506 203.16C137.421 203.122 137.345 203.068 137.282 203C137.219 202.932 137.17 202.853 137.138 202.766C137.106 202.679 137.092 202.587 137.095 202.494C137.099 202.402 137.121 202.311 137.16 202.227C137.199 202.143 137.255 202.068 137.323 202.006C137.391 201.943 137.471 201.895 137.558 201.864C137.646 201.833 137.738 201.819 137.83 201.824C137.923 201.828 138.013 201.851 138.097 201.891C139.428 202.512 140.723 203.09 141.945 203.611C142.094 203.674 142.216 203.787 142.291 203.93C142.366 204.073 142.389 204.237 142.357 204.395C142.325 204.553 142.239 204.695 142.114 204.797C141.989 204.899 141.832 204.955 141.671 204.955V204.955ZM185.507 202.099C185.363 202.099 185.221 202.054 185.103 201.97C184.985 201.887 184.896 201.769 184.847 201.632C184.799 201.495 184.794 201.347 184.834 201.208C184.873 201.069 184.955 200.945 185.068 200.854C186.116 200.008 187.17 199.081 188.2 198.097C188.334 197.969 188.514 197.9 188.699 197.904C188.885 197.908 189.061 197.986 189.189 198.12C189.318 198.255 189.387 198.434 189.383 198.62C189.379 198.806 189.301 198.982 189.166 199.11C188.108 200.12 187.024 201.074 185.946 201.944C185.822 202.044 185.668 202.099 185.508 202.099L185.507 202.099ZM133.981 201.387C133.873 201.386 133.767 201.362 133.671 201.314C132.49 200.729 131.249 200.101 129.878 199.394C129.797 199.352 129.724 199.294 129.665 199.224C129.605 199.154 129.56 199.073 129.532 198.985C129.504 198.897 129.494 198.805 129.501 198.714C129.509 198.622 129.535 198.533 129.577 198.451C129.619 198.369 129.677 198.297 129.747 198.237C129.817 198.178 129.898 198.133 129.986 198.105C130.073 198.077 130.166 198.067 130.257 198.074C130.349 198.082 130.438 198.107 130.52 198.15C131.884 198.853 133.118 199.478 134.292 200.059C134.434 200.129 134.548 200.245 134.615 200.388C134.682 200.531 134.699 200.692 134.663 200.846C134.627 201 134.54 201.137 134.416 201.235C134.292 201.333 134.139 201.387 133.981 201.387ZM126.44 197.51C126.326 197.51 126.215 197.482 126.114 197.429C124.948 196.815 123.778 196.196 122.604 195.571L122.365 195.445C122.283 195.403 122.21 195.344 122.151 195.273C122.091 195.203 122.046 195.121 122.019 195.032C121.991 194.944 121.981 194.851 121.99 194.759C121.998 194.667 122.025 194.577 122.068 194.495C122.112 194.414 122.171 194.341 122.242 194.283C122.314 194.224 122.396 194.18 122.485 194.153C122.574 194.126 122.667 194.118 122.759 194.127C122.851 194.137 122.94 194.164 123.021 194.208L123.259 194.334C124.433 194.957 125.602 195.576 126.767 196.191C126.905 196.264 127.015 196.381 127.079 196.524C127.144 196.667 127.158 196.827 127.12 196.979C127.083 197.13 126.995 197.265 126.872 197.362C126.749 197.458 126.597 197.51 126.44 197.51L126.44 197.51ZM191.635 196.272C191.499 196.272 191.367 196.233 191.253 196.159C191.139 196.085 191.05 195.979 190.995 195.855C190.94 195.731 190.922 195.594 190.944 195.46C190.966 195.326 191.026 195.202 191.117 195.101C192.026 194.101 192.942 193.029 193.839 191.915C193.956 191.773 194.125 191.683 194.308 191.664C194.492 191.645 194.675 191.699 194.819 191.815C194.962 191.931 195.054 192.098 195.075 192.281C195.096 192.465 195.043 192.649 194.929 192.793C194.015 193.929 193.081 195.022 192.153 196.043C192.087 196.115 192.007 196.173 191.918 196.213C191.829 196.252 191.732 196.273 191.635 196.273V196.272ZM118.95 193.548C118.837 193.548 118.725 193.52 118.625 193.467C117.239 192.738 116.012 192.099 114.873 191.514C114.708 191.43 114.583 191.282 114.526 191.106C114.469 190.929 114.485 190.737 114.57 190.571C114.655 190.406 114.802 190.281 114.979 190.225C115.156 190.168 115.348 190.184 115.513 190.268C116.655 190.856 117.886 191.496 119.276 192.228C119.415 192.3 119.525 192.418 119.589 192.56C119.653 192.703 119.668 192.863 119.63 193.015C119.593 193.167 119.505 193.302 119.382 193.399C119.259 193.495 119.107 193.547 118.95 193.547L118.95 193.548ZM196.953 189.69C196.824 189.69 196.697 189.654 196.587 189.587C196.477 189.519 196.388 189.423 196.33 189.308C196.271 189.193 196.245 189.064 196.255 188.935C196.265 188.807 196.311 188.683 196.387 188.579C197.185 187.478 197.99 186.316 198.779 185.122C198.881 184.968 199.041 184.86 199.223 184.823C199.405 184.786 199.594 184.822 199.749 184.925C199.904 185.027 200.011 185.187 200.048 185.369C200.086 185.551 200.049 185.74 199.946 185.895C199.146 187.105 198.33 188.284 197.52 189.401C197.455 189.491 197.37 189.564 197.271 189.614C197.173 189.664 197.063 189.69 196.953 189.69V189.69ZM111.41 189.681C111.302 189.681 111.196 189.656 111.1 189.608C109.766 188.948 108.521 188.347 107.294 187.771C107.128 187.691 107.001 187.548 106.939 187.375C106.878 187.201 106.887 187.01 106.965 186.844C107.044 186.677 107.184 186.548 107.357 186.484C107.53 186.421 107.721 186.428 107.889 186.504C109.125 187.084 110.378 187.688 111.721 188.353C111.862 188.424 111.976 188.539 112.043 188.682C112.111 188.825 112.128 188.987 112.092 189.141C112.056 189.294 111.969 189.431 111.845 189.53C111.721 189.628 111.568 189.681 111.41 189.681ZM103.728 186.086C103.631 186.086 103.536 186.066 103.448 186.027C102.122 185.449 100.812 184.902 99.554 184.403C99.4686 184.369 99.3907 184.318 99.3247 184.254C99.2587 184.19 99.206 184.114 99.1696 184.029C99.1332 183.945 99.1137 183.854 99.1124 183.762C99.111 183.67 99.1278 183.579 99.1617 183.494C99.1956 183.408 99.246 183.33 99.3101 183.264C99.3741 183.198 99.4505 183.146 99.5349 183.109C99.6193 183.073 99.7101 183.053 99.802 183.052C99.8939 183.051 99.9852 183.067 100.071 183.101C101.343 183.606 102.667 184.159 104.008 184.744C104.155 184.809 104.276 184.922 104.35 185.065C104.424 185.208 104.446 185.371 104.413 185.529C104.38 185.686 104.294 185.828 104.169 185.929C104.045 186.031 103.889 186.086 103.728 186.086ZM95.84 182.964C95.761 182.964 95.6826 182.951 95.6081 182.924C94.2566 182.45 92.9103 182.012 91.6065 181.622C91.5184 181.596 91.4364 181.553 91.3651 181.495C91.2938 181.437 91.2346 181.365 91.1909 181.284C91.1472 181.203 91.1199 181.115 91.1105 181.023C91.1011 180.932 91.1097 180.839 91.136 180.751C91.1623 180.663 91.2057 180.581 91.2637 180.51C91.3217 180.439 91.3932 180.379 91.4741 180.336C91.555 180.292 91.6437 180.265 91.7351 180.255C91.8266 180.246 91.919 180.255 92.0071 180.281C93.3322 180.677 94.6997 181.122 96.0718 181.603C96.2278 181.658 96.3593 181.766 96.4432 181.909C96.5271 182.051 96.5579 182.219 96.5301 182.382C96.5023 182.544 96.4178 182.692 96.2915 182.799C96.1652 182.905 96.0053 182.964 95.84 182.964ZM201.63 182.634C201.506 182.634 201.384 182.601 201.277 182.538C201.17 182.475 201.081 182.385 201.021 182.276C200.96 182.168 200.929 182.046 200.931 181.921C200.933 181.797 200.969 181.676 201.033 181.57C201.744 180.404 202.461 179.182 203.165 177.938C203.209 177.856 203.27 177.783 203.342 177.725C203.415 177.666 203.498 177.623 203.588 177.597C203.677 177.571 203.771 177.564 203.863 177.574C203.956 177.585 204.045 177.615 204.126 177.66C204.207 177.706 204.279 177.768 204.336 177.842C204.392 177.915 204.434 178 204.458 178.09C204.482 178.18 204.488 178.274 204.475 178.366C204.462 178.458 204.431 178.547 204.383 178.627C203.671 179.885 202.947 181.119 202.228 182.298C202.166 182.401 202.078 182.486 201.973 182.545C201.868 182.604 201.75 182.634 201.63 182.634V182.634ZM58.4337 181.041C58.2659 181.041 58.1036 180.981 57.9765 180.872C57.8494 180.762 57.7659 180.61 57.7412 180.444C57.7164 180.279 57.7521 180.109 57.8418 179.967C57.9314 179.826 58.069 179.721 58.2295 179.672C59.5999 179.253 60.9969 178.888 62.3815 178.585C62.5629 178.545 62.7526 178.579 62.9089 178.68C63.0651 178.78 63.1752 178.938 63.2148 179.12C63.2544 179.301 63.2204 179.491 63.1201 179.647C63.0199 179.803 62.8617 179.913 62.6803 179.953C61.3326 180.247 59.9727 180.603 58.6383 181.011C58.572 181.031 58.503 181.041 58.4337 181.041ZM87.7145 180.548C87.6593 180.548 87.6043 180.542 87.5506 180.529C86.1707 180.198 84.7899 179.91 83.4465 179.675C83.2658 179.64 83.106 179.536 83.0015 179.385C82.8969 179.234 82.8561 179.047 82.8878 178.866C82.9196 178.685 83.0213 178.524 83.171 178.417C83.3207 178.31 83.5064 178.267 83.688 178.296C85.06 178.536 86.4694 178.829 87.8773 179.167C88.0442 179.207 88.1907 179.307 88.289 179.447C88.3873 179.588 88.4305 179.76 88.4104 179.93C88.3903 180.1 88.3083 180.258 88.18 180.371C88.0517 180.485 87.8861 180.548 87.7145 180.548V180.548ZM66.7018 179.237C66.5241 179.237 66.3531 179.169 66.2234 179.048C66.0937 178.926 66.0151 178.76 66.0035 178.583C65.9918 178.405 66.0481 178.23 66.1608 178.093C66.2735 177.955 66.4342 177.866 66.6104 177.843C68.0186 177.656 69.4571 177.524 70.8858 177.453C70.9776 177.448 71.0695 177.462 71.1561 177.493C71.2427 177.524 71.3223 177.571 71.3905 177.633C71.4587 177.695 71.514 177.769 71.5534 177.852C71.5928 177.935 71.6154 178.025 71.62 178.117C71.6246 178.209 71.6111 178.301 71.5802 178.387C71.5493 178.474 71.5017 178.554 71.44 178.622C71.3783 178.69 71.3038 178.745 71.2207 178.785C71.1377 178.824 71.0476 178.847 70.9558 178.851C69.5653 178.921 68.1655 179.048 66.795 179.231C66.7641 179.235 66.733 179.237 66.7018 179.237ZM79.3792 179.097C79.3545 179.097 79.3297 179.096 79.3051 179.093C77.9089 178.946 76.5051 178.851 75.135 178.811C74.9493 178.805 74.7735 178.726 74.6461 178.591C74.5188 178.455 74.4504 178.275 74.456 178.09C74.4615 177.904 74.5406 177.728 74.6758 177.601C74.811 177.473 74.9913 177.405 75.177 177.411C76.5824 177.453 78.0208 177.551 79.4516 177.7C79.6297 177.719 79.7937 177.806 79.91 177.942C80.0263 178.078 80.0859 178.254 80.0767 178.433C80.0674 178.611 79.99 178.78 79.8603 178.903C79.7305 179.027 79.5584 179.096 79.3793 179.096L79.3792 179.097ZM205.807 175.268C205.686 175.268 205.567 175.237 205.462 175.177C205.357 175.118 205.27 175.032 205.207 174.929C205.145 174.825 205.111 174.708 205.107 174.587C205.104 174.466 205.132 174.347 205.189 174.24C205.831 173.028 206.479 171.765 207.115 170.488C207.156 170.406 207.213 170.333 207.282 170.272C207.352 170.212 207.432 170.166 207.519 170.137C207.606 170.108 207.699 170.096 207.79 170.102C207.882 170.109 207.971 170.133 208.054 170.174C208.136 170.215 208.209 170.272 208.27 170.341C208.33 170.41 208.376 170.491 208.405 170.578C208.435 170.665 208.446 170.757 208.44 170.849C208.434 170.941 208.409 171.03 208.368 171.113C207.727 172.4 207.073 173.673 206.426 174.896C206.366 175.008 206.277 175.102 206.168 175.168C206.059 175.234 205.934 175.268 205.807 175.268V175.268ZM209.587 167.689C209.469 167.689 209.353 167.659 209.25 167.602C209.146 167.545 209.059 167.463 208.996 167.364C208.933 167.264 208.896 167.15 208.888 167.032C208.881 166.915 208.904 166.797 208.954 166.69C209.54 165.445 210.133 164.154 210.715 162.853C210.752 162.77 210.806 162.694 210.873 162.631C210.94 162.568 211.018 162.518 211.104 162.485C211.19 162.453 211.281 162.437 211.373 162.44C211.465 162.442 211.556 162.463 211.64 162.5C211.724 162.538 211.799 162.592 211.862 162.658C211.926 162.725 211.975 162.804 212.008 162.89C212.041 162.976 212.056 163.067 212.054 163.159C212.051 163.251 212.03 163.341 211.993 163.425C211.407 164.735 210.811 166.034 210.221 167.287C210.164 167.407 210.074 167.508 209.962 167.579C209.85 167.651 209.72 167.688 209.588 167.688L209.587 167.689ZM213.048 159.958C212.933 159.958 212.819 159.929 212.717 159.874C212.615 159.819 212.528 159.74 212.464 159.644C212.4 159.547 212.361 159.436 212.351 159.321C212.341 159.206 212.359 159.09 212.404 158.983C212.945 157.716 213.492 156.404 214.03 155.084C214.063 154.997 214.114 154.919 214.179 154.852C214.243 154.785 214.32 154.732 214.406 154.696C214.491 154.659 214.582 154.64 214.675 154.639C214.768 154.638 214.86 154.656 214.946 154.691C215.032 154.726 215.11 154.777 215.176 154.843C215.241 154.908 215.293 154.986 215.329 155.072C215.364 155.158 215.382 155.25 215.382 155.342C215.381 155.435 215.362 155.527 215.326 155.612C214.785 156.939 214.235 158.258 213.692 159.532C213.638 159.658 213.549 159.766 213.434 159.842C213.32 159.917 213.186 159.957 213.049 159.958L213.048 159.958ZM216.248 152.114C216.134 152.114 216.022 152.086 215.921 152.033C215.821 151.98 215.734 151.903 215.67 151.809C215.606 151.715 215.566 151.606 215.553 151.493C215.54 151.38 215.555 151.265 215.596 151.159C216.099 149.874 216.608 148.546 217.108 147.212C217.174 147.039 217.305 146.898 217.474 146.821C217.644 146.744 217.836 146.738 218.01 146.803C218.184 146.869 218.324 147 218.401 147.169C218.478 147.339 218.484 147.531 218.419 147.705C217.915 149.044 217.404 150.378 216.9 151.669C216.849 151.8 216.759 151.913 216.643 151.992C216.527 152.071 216.389 152.114 216.249 152.114L216.248 152.114ZM219.23 144.185C219.118 144.185 219.007 144.157 218.907 144.106C218.808 144.054 218.722 143.979 218.657 143.887C218.593 143.795 218.551 143.688 218.537 143.577C218.522 143.466 218.534 143.352 218.572 143.247C219.043 141.946 219.52 140.606 219.989 139.263C220.019 139.175 220.066 139.094 220.127 139.024C220.188 138.954 220.262 138.898 220.345 138.857C220.428 138.816 220.519 138.792 220.611 138.787C220.704 138.781 220.797 138.794 220.884 138.825C220.972 138.855 221.052 138.903 221.121 138.965C221.19 139.027 221.246 139.102 221.286 139.186C221.325 139.269 221.348 139.36 221.352 139.453C221.357 139.545 221.343 139.638 221.311 139.725C220.84 141.072 220.361 142.418 219.888 143.723C219.839 143.858 219.75 143.975 219.632 144.058C219.515 144.14 219.374 144.184 219.231 144.184L219.23 144.185ZM222.022 136.185C221.911 136.185 221.802 136.159 221.703 136.108C221.604 136.057 221.519 135.984 221.454 135.894C221.389 135.804 221.347 135.7 221.33 135.59C221.313 135.48 221.323 135.368 221.358 135.263C221.81 133.913 222.251 132.561 222.671 131.245C222.727 131.068 222.851 130.921 223.016 130.835C223.181 130.75 223.373 130.734 223.55 130.79C223.727 130.846 223.874 130.971 223.96 131.136C224.045 131.301 224.061 131.493 224.005 131.67C223.583 132.992 223.14 134.35 222.686 135.707C222.64 135.846 222.551 135.967 222.432 136.053C222.312 136.138 222.17 136.185 222.023 136.185L222.022 136.185ZM224.592 128.11C224.483 128.11 224.375 128.085 224.278 128.036C224.18 127.987 224.095 127.915 224.03 127.828C223.965 127.74 223.921 127.638 223.902 127.531C223.884 127.423 223.89 127.313 223.922 127.208C224.331 125.85 224.729 124.486 225.106 123.153C225.157 122.974 225.276 122.823 225.438 122.732C225.6 122.641 225.792 122.619 225.97 122.669C226.149 122.72 226.3 122.839 226.391 123.001C226.482 123.163 226.504 123.355 226.454 123.533C226.074 124.874 225.674 126.247 225.262 127.612C225.219 127.756 225.13 127.882 225.01 127.972C224.889 128.062 224.743 128.11 224.593 128.11L224.592 128.11ZM226.896 119.956C226.788 119.956 226.683 119.931 226.587 119.884C226.49 119.837 226.406 119.768 226.341 119.683C226.275 119.598 226.23 119.5 226.209 119.395C226.188 119.29 226.191 119.181 226.218 119.078C226.579 117.702 226.927 116.325 227.25 114.983C227.295 114.804 227.409 114.65 227.567 114.554C227.725 114.459 227.914 114.429 228.093 114.473C228.273 114.516 228.428 114.628 228.525 114.785C228.622 114.942 228.653 115.131 228.611 115.311C228.285 116.662 227.936 118.049 227.572 119.433C227.533 119.583 227.445 119.715 227.323 119.809C227.201 119.904 227.051 119.955 226.896 119.955L226.896 119.956ZM228.88 111.717C228.775 111.718 228.672 111.694 228.577 111.649C228.483 111.604 228.4 111.538 228.334 111.457C228.268 111.376 228.222 111.28 228.198 111.179C228.174 111.077 228.173 110.971 228.195 110.869C228.498 109.478 228.783 108.088 229.043 106.735C229.06 106.644 229.094 106.557 229.144 106.48C229.195 106.402 229.26 106.336 229.336 106.284C229.413 106.231 229.498 106.195 229.589 106.176C229.679 106.157 229.773 106.157 229.863 106.174C229.954 106.191 230.041 106.227 230.118 106.278C230.195 106.329 230.261 106.394 230.312 106.471C230.364 106.548 230.4 106.634 230.418 106.725C230.436 106.815 230.436 106.909 230.418 106.999C230.156 108.363 229.868 109.765 229.564 111.166C229.53 111.322 229.443 111.462 229.319 111.563C229.194 111.663 229.04 111.717 228.88 111.717ZM230.475 103.396C230.373 103.396 230.273 103.374 230.181 103.331C230.089 103.289 230.007 103.227 229.941 103.149C229.875 103.072 229.827 102.981 229.8 102.883C229.773 102.785 229.767 102.683 229.783 102.583C230.014 101.175 230.223 99.772 230.404 98.413C230.415 98.3211 230.444 98.2323 230.49 98.1518C230.536 98.0713 230.597 98.0007 230.67 97.944C230.743 97.8874 230.827 97.8458 230.917 97.8217C231.006 97.7976 231.099 97.7915 231.191 97.8037C231.283 97.8159 231.371 97.8462 231.451 97.8928C231.531 97.9395 231.601 98.0015 231.657 98.0753C231.713 98.1492 231.753 98.2334 231.777 98.323C231.8 98.4127 231.805 98.506 231.791 98.5977C231.609 99.9705 231.398 101.388 231.165 102.809C231.138 102.973 231.054 103.121 230.928 103.229C230.802 103.336 230.641 103.396 230.476 103.396H230.475ZM231.587 94.9971C231.564 94.9971 231.541 94.9959 231.517 94.9936C231.426 94.9846 231.337 94.9577 231.256 94.9143C231.175 94.871 231.103 94.8121 231.045 94.741C230.986 94.6699 230.943 94.5881 230.916 94.5001C230.889 94.4121 230.88 94.3197 230.889 94.2283C231.029 92.8106 231.141 91.3987 231.224 90.0319C231.235 89.8466 231.319 89.6733 231.458 89.5501C231.597 89.427 231.779 89.364 231.964 89.3752C232.15 89.3863 232.323 89.4706 232.446 89.6095C232.569 89.7484 232.632 89.9306 232.621 90.1159C232.538 91.5005 232.424 92.9299 232.282 94.3659C232.265 94.5385 232.185 94.6986 232.057 94.8153C231.928 94.9319 231.761 94.9967 231.588 94.9971H231.587ZM232.087 86.5411H232.076C231.984 86.5397 231.893 86.5201 231.809 86.4835C231.724 86.4469 231.648 86.3941 231.584 86.3281C231.52 86.262 231.47 86.184 231.436 86.0985C231.402 86.013 231.386 85.9217 231.387 85.8298C231.395 85.3363 231.399 84.8436 231.399 84.3653C231.399 83.4464 231.384 82.5257 231.355 81.6281C231.351 81.5357 231.365 81.4433 231.397 81.3564C231.429 81.2696 231.478 81.1899 231.541 81.122C231.603 81.0541 231.679 80.9993 231.763 80.9609C231.848 80.9225 231.939 80.9011 232.031 80.898C232.124 80.895 232.216 80.9103 232.302 80.9431C232.389 80.9759 232.468 81.0255 232.535 81.0891C232.602 81.1527 232.656 81.229 232.694 81.3136C232.731 81.3982 232.752 81.4894 232.754 81.5819C232.784 82.4947 232.799 83.4312 232.799 84.3653C232.799 84.8511 232.795 85.3516 232.787 85.8525C232.784 86.0359 232.709 86.2108 232.578 86.3394C232.447 86.4681 232.271 86.5404 232.088 86.5406L232.087 86.5411ZM231.796 78.0807C231.622 78.0805 231.453 78.015 231.325 77.8971C231.196 77.7792 231.116 77.6173 231.1 77.4434C230.972 76.026 230.801 74.628 230.592 73.2883C230.576 73.1969 230.579 73.1033 230.6 73.013C230.621 72.9227 230.659 72.8374 230.714 72.7621C230.768 72.6868 230.836 72.6231 230.915 72.5745C230.994 72.5259 231.082 72.4935 231.174 72.4792C231.265 72.4649 231.359 72.4689 231.449 72.491C231.539 72.5132 231.624 72.553 231.698 72.6081C231.773 72.6633 231.836 72.7327 231.883 72.8123C231.931 72.892 231.962 72.9802 231.975 73.072C232.189 74.4417 232.364 75.8702 232.494 77.3177C232.503 77.4092 232.493 77.5015 232.465 77.5893C232.438 77.677 232.393 77.7585 232.335 77.8291C232.276 77.8997 232.203 77.9579 232.122 78.0006C232.041 78.0433 231.951 78.0695 231.86 78.0777C231.839 78.0791 231.818 78.0801 231.797 78.0801L231.796 78.0807ZM230.476 69.7271C230.318 69.727 230.165 69.6736 230.041 69.5755C229.918 69.4774 229.831 69.3404 229.795 69.1867C229.472 67.8086 229.095 66.4567 228.673 65.1711C228.642 65.0832 228.629 64.99 228.634 64.897C228.64 64.8039 228.664 64.713 228.705 64.6293C228.746 64.5457 228.804 64.4712 228.874 64.4101C228.945 64.349 229.026 64.3026 229.115 64.2735C229.204 64.2445 229.297 64.2334 229.39 64.241C229.483 64.2486 229.573 64.2746 229.656 64.3176C229.739 64.3606 229.812 64.4196 229.872 64.4913C229.931 64.563 229.976 64.6459 230.003 64.735C230.437 66.0597 230.826 67.4499 231.158 68.8673C231.182 68.97 231.182 69.0769 231.159 69.18C231.136 69.283 231.09 69.3795 231.025 69.4622C230.959 69.5449 230.876 69.6117 230.781 69.6576C230.686 69.7034 230.581 69.7272 230.476 69.7271H230.476ZM227.83 61.7022C227.694 61.7023 227.561 61.6628 227.447 61.5886C227.333 61.5143 227.244 61.4086 227.189 61.2842C226.632 60.0161 226.006 58.7794 225.314 57.5795C225.225 57.419 225.203 57.2302 225.252 57.0537C225.302 56.8771 225.418 56.7269 225.577 56.6353C225.735 56.5436 225.924 56.5179 226.101 56.5635C226.279 56.6092 226.431 56.7226 226.526 56.8795C227.243 58.1236 227.892 59.4058 228.47 60.7205C228.517 60.8271 228.537 60.9436 228.527 61.0597C228.518 61.1757 228.48 61.2876 228.416 61.3851C228.353 61.4826 228.266 61.5628 228.163 61.6183C228.061 61.6738 227.946 61.7029 227.83 61.7029V61.7022ZM223.593 54.399C223.484 54.3991 223.377 54.3739 223.279 54.3253C223.182 54.2766 223.097 54.206 223.032 54.119C222.204 53.0129 221.308 51.9592 220.349 50.9638C220.22 50.8301 220.15 50.6507 220.153 50.4651C220.157 50.2795 220.234 50.1028 220.367 49.974C220.501 49.8451 220.68 49.7747 220.866 49.7781C221.051 49.7815 221.228 49.8585 221.357 49.9922C222.356 51.0293 223.289 52.1273 224.153 53.2797C224.231 53.3837 224.278 53.5073 224.29 53.6368C224.301 53.7663 224.277 53.8964 224.219 54.0127C224.161 54.129 224.071 54.2268 223.961 54.2951C223.85 54.3635 223.723 54.3997 223.593 54.3997L223.593 54.399ZM217.733 48.3213C217.573 48.3214 217.418 48.2665 217.293 48.1657C216.216 47.2969 215.089 46.4929 213.916 45.7577C213.759 45.6591 213.648 45.5019 213.606 45.321C213.565 45.14 213.597 44.95 213.696 44.7927C213.794 44.6355 213.951 44.5239 214.132 44.4825C214.313 44.4411 214.503 44.4732 214.661 44.5719C215.88 45.3366 217.053 46.1729 218.173 47.0765C218.286 47.1675 218.368 47.2912 218.407 47.4306C218.446 47.5699 218.442 47.718 218.393 47.8545C218.345 47.991 218.256 48.1091 218.137 48.1927C218.019 48.2762 217.878 48.3211 217.733 48.321V48.3213ZM140.176 46.9122C140.01 46.9123 139.849 46.8532 139.722 46.7456C139.595 46.638 139.511 46.4888 139.484 46.3248C139.458 46.1608 139.49 45.9926 139.576 45.8503C139.662 45.708 139.796 45.601 139.953 45.5483C141.274 45.1055 142.638 44.6673 144.006 44.2463C144.095 44.2177 144.188 44.2069 144.28 44.2146C144.373 44.2223 144.463 44.2483 144.545 44.2911C144.627 44.3339 144.7 44.3926 144.76 44.4639C144.819 44.5351 144.864 44.6175 144.891 44.7062C144.919 44.7948 144.928 44.8881 144.919 44.9804C144.91 45.0728 144.883 45.1624 144.839 45.2441C144.795 45.3258 144.735 45.3979 144.663 45.4563C144.591 45.5147 144.507 45.5581 144.418 45.5841C143.06 46.0025 141.708 46.4372 140.398 46.8762C140.327 46.9002 140.251 46.9123 140.176 46.9122ZM148.278 44.4146C148.109 44.4146 147.946 44.3535 147.818 44.2424C147.691 44.1313 147.608 43.9779 147.584 43.8104C147.561 43.6429 147.6 43.4727 147.692 43.3312C147.785 43.1897 147.925 43.0866 148.088 43.0408C149.452 42.6556 150.835 42.2828 152.198 41.9327C152.377 41.8886 152.566 41.917 152.724 42.0117C152.882 42.1064 152.997 42.2596 153.043 42.4382C153.089 42.6168 153.062 42.8063 152.969 42.9655C152.876 43.1248 152.724 43.2408 152.546 43.2886C151.194 43.6359 149.822 44.0059 148.469 44.3881C148.407 44.4057 148.343 44.4146 148.278 44.4146H148.278ZM210.583 43.8187C210.478 43.8187 210.374 43.7947 210.279 43.7487C209.058 43.1584 207.768 42.6128 206.443 42.1268C206.27 42.062 206.13 41.9314 206.053 41.7634C205.975 41.5954 205.968 41.4037 206.032 41.2302C206.095 41.0566 206.225 40.9153 206.392 40.8371C206.56 40.7588 206.752 40.75 206.925 40.8125C208.293 41.3141 209.626 41.8781 210.889 42.4883C211.031 42.5574 211.146 42.6728 211.215 42.8157C211.283 42.9586 211.301 43.1205 211.266 43.275C211.23 43.4294 211.143 43.5672 211.02 43.6659C210.896 43.7647 210.742 43.8184 210.583 43.8183L210.583 43.8187ZM156.489 42.3067C156.317 42.3068 156.151 42.2434 156.023 42.1289C155.895 42.0143 155.813 41.8565 155.794 41.6856C155.774 41.5147 155.819 41.3427 155.918 41.2023C156.017 41.0619 156.165 40.963 156.333 40.9245C157.722 40.6039 159.121 40.2998 160.493 40.0208C160.674 39.9838 160.864 40.0206 161.018 40.123C161.173 40.2255 161.281 40.3853 161.318 40.5672C161.355 40.7492 161.318 40.9384 161.216 41.0932C161.113 41.248 160.954 41.3558 160.772 41.3928C159.412 41.6696 158.025 41.9712 156.647 42.2888C156.596 42.3006 156.543 42.3064 156.49 42.3062L156.489 42.3067ZM202.647 40.8906C202.585 40.8906 202.524 40.8823 202.464 40.8661C201.154 40.5117 199.782 40.1972 198.387 39.9316C198.296 39.9155 198.209 39.8813 198.131 39.8312C198.053 39.7811 197.985 39.716 197.933 39.6397C197.88 39.5634 197.843 39.4775 197.824 39.3868C197.805 39.2961 197.804 39.2026 197.821 39.1116C197.839 39.0205 197.874 38.9339 197.925 38.8565C197.976 38.7792 198.042 38.7128 198.119 38.6612C198.196 38.6096 198.282 38.5737 198.373 38.5557C198.464 38.5377 198.558 38.538 198.649 38.5564C200.079 38.8286 201.486 39.151 202.83 39.5147C202.994 39.5589 203.136 39.6611 203.23 39.8023C203.324 39.9435 203.364 40.1142 203.342 40.2824C203.32 40.4507 203.237 40.6052 203.109 40.7171C202.982 40.8289 202.818 40.8906 202.648 40.8906H202.647ZM164.796 40.6185C164.62 40.6184 164.452 40.5526 164.322 40.4342C164.193 40.3157 164.113 40.1531 164.098 39.9786C164.083 39.804 164.134 39.6301 164.241 39.4913C164.348 39.3525 164.503 39.2589 164.676 39.2288C166.087 38.9823 167.502 38.7566 168.882 38.558C169.066 38.5315 169.253 38.5792 169.402 38.6904C169.55 38.8017 169.649 38.9675 169.675 39.1513C169.701 39.3351 169.654 39.5218 169.542 39.6705C169.431 39.8192 169.265 39.9175 169.082 39.944C167.715 40.1407 166.314 40.364 164.917 40.6083C164.877 40.6149 164.837 40.6181 164.796 40.6179L164.796 40.6185ZM173.182 39.4157C173.003 39.4156 172.831 39.3469 172.701 39.2238C172.572 39.1007 172.494 38.9325 172.484 38.7538C172.474 38.5751 172.533 38.3995 172.649 38.263C172.765 38.1265 172.929 38.0395 173.106 38.0199C174.537 37.8617 175.965 37.7297 177.35 37.6279C177.536 37.6143 177.719 37.6747 177.859 37.7959C178 37.9172 178.086 38.0893 178.1 38.2745C178.114 38.4596 178.053 38.6426 177.932 38.7832C177.811 38.9238 177.639 39.0105 177.454 39.0242C176.085 39.1252 174.674 39.2556 173.26 39.4118C173.235 39.4144 173.209 39.4155 173.183 39.4152L173.182 39.4157ZM194.332 39.2944C194.303 39.2943 194.274 39.2926 194.246 39.2892C192.894 39.1241 191.488 38.9952 190.066 38.905C189.974 38.8996 189.884 38.876 189.801 38.8357C189.718 38.7953 189.644 38.739 189.583 38.67C189.522 38.601 189.475 38.5206 189.445 38.4334C189.415 38.3463 189.403 38.254 189.409 38.1621C189.414 38.0701 189.438 37.9802 189.479 37.8975C189.52 37.8148 189.576 37.7409 189.645 37.6802C189.715 37.6194 189.795 37.5729 189.883 37.5433C189.97 37.5137 190.062 37.5017 190.154 37.5078C191.603 37.5994 193.037 37.7318 194.416 37.8998C194.593 37.9212 194.755 38.0094 194.869 38.1464C194.983 38.2833 195.041 38.4588 195.03 38.6369C195.02 38.8149 194.941 38.9822 194.811 39.1045C194.682 39.2267 194.51 39.2948 194.332 39.2948V39.2944ZM181.634 38.7971C181.448 38.8001 181.269 38.7293 181.135 38.6002C181.002 38.4711 180.925 38.2942 180.922 38.1086C180.919 37.9229 180.99 37.7437 181.119 37.6102C181.248 37.4768 181.425 37.4001 181.611 37.3971C182.685 37.3612 183.758 37.3429 184.8 37.3429C185.167 37.34 185.522 37.345 185.882 37.3493C186.067 37.3504 186.245 37.4252 186.375 37.5573C186.506 37.6893 186.579 37.8678 186.578 38.0535C186.576 38.2391 186.502 38.4167 186.37 38.5472C186.238 38.6777 186.059 38.7504 185.873 38.7493H185.865C185.512 38.7451 185.16 38.743 184.806 38.743H184.8C183.773 38.743 182.716 38.761 181.657 38.7964C181.65 38.7964 181.642 38.7965 181.634 38.7965L181.634 38.7971Z" fill="#34DA97"/>
<path d="M52.3765 183.291C52.2157 183.291 52.0597 183.236 51.9348 183.135C51.81 183.034 51.7237 182.892 51.6907 182.735C51.6577 182.578 51.6798 182.414 51.7535 182.271C51.8271 182.128 51.9477 182.014 52.095 181.95C52.744 181.666 53.4042 181.39 54.0576 181.132C54.1431 181.098 54.2344 181.082 54.3263 181.083C54.4183 181.085 54.509 181.104 54.5933 181.141C54.6777 181.177 54.754 181.23 54.8179 181.296C54.8819 181.362 54.9322 181.44 54.9659 181.526C54.9997 181.611 55.0164 181.703 55.0149 181.794C55.0134 181.886 54.9938 181.977 54.9572 182.061C54.9207 182.146 54.8679 182.222 54.8018 182.286C54.7358 182.35 54.6578 182.4 54.5723 182.434C53.935 182.686 53.2906 182.955 52.6572 183.232C52.5687 183.271 52.4732 183.291 52.3765 183.291Z" fill="#34DA97"/>
<path d="M44.2659 184C45.3317 183.731 45.8052 181.966 45.3235 180.057C44.8419 178.149 43.5875 176.82 42.5217 177.089C41.456 177.358 40.9824 179.123 41.4641 181.031C41.9457 182.94 43.2001 184.269 44.2659 184Z" fill="#96CCB5"/>
<path d="M48.3063 194.153C49.3334 193.761 49.5975 191.953 48.8963 190.114C48.195 188.275 46.7939 187.101 45.7669 187.493C44.7398 187.884 44.4757 189.693 45.1769 191.532C45.8782 193.371 47.2793 194.544 48.3063 194.153Z" fill="#96CCB5"/>
<path d="M44.7388 187.35C45.5517 187.35 46.2106 186.691 46.2106 185.878C46.2106 185.065 45.5517 184.406 44.7388 184.406C43.9259 184.406 43.267 185.065 43.267 185.878C43.267 186.691 43.9259 187.35 44.7388 187.35Z" fill="#34DA97"/>
</svg>
