<svg width="216" height="216" viewBox="0 0 216 216" fill="none" xmlns="http://www.w3.org/2000/svg">
<g clip-path="url(#clip0_210_2447)">
<path d="M193.655 0H22.3448V113.851L78.2069 156.414H137.793L193.655 113.851V0Z" fill="#F0EFE5"/>
<path d="M0 216H0.480414H214.291H215.52H216L137.793 156.414H78.2069L0 216Z" fill="#100651"/>
<path d="M22.7433 114.156L22.3448 113.851V76.0208L0 96.8239V96.8276L22.7433 114.156Z" fill="#716B98"/>
<path d="M193.655 76.0208V113.851L192.881 114.439H192.884L216 96.8276V96.8239L193.655 76.0208Z" fill="#716B98"/>
<path d="M0 216V96.8276L78.2069 156.414L0 216Z" fill="#3626A7"/>
<path d="M216 216V96.8276L137.793 156.414L216 216Z" fill="#3626A7"/>
<path d="M159.831 43.8586H56.169C53.3144 43.8586 51 42.3235 51 40.4293C51 38.5351 53.3144 37 56.169 37H159.831C162.686 37 165 38.5351 165 40.4293C165 42.3235 162.686 43.8586 159.831 43.8586Z" fill="#515262" fill-opacity="0.3"/>
<path d="M159.831 59.7315H56.169C53.3144 59.7315 51 58.1964 51 56.3022C51 54.4079 53.3144 52.8729 56.169 52.8729H159.831C162.686 52.8729 165 54.4079 165 56.3022C165 58.1964 162.686 59.7315 159.831 59.7315Z" fill="#515262" fill-opacity="0.3"/>
<path d="M159.831 75.6043H56.169C53.3144 75.6043 51 74.0693 51 72.1751C51 70.2808 53.3144 68.7458 56.169 68.7458H159.831C162.686 68.7458 165 70.2808 165 72.1751C165 74.0693 162.686 75.6043 159.831 75.6043Z" fill="#515262" fill-opacity="0.3"/>
</g>
<defs>
<clipPath id="clip0_210_2447">
<rect width="216" height="216" fill="white"/>
</clipPath>
</defs>
</svg>
