<svg width="20" height="21" viewBox="0 0 20 21" fill="none" xmlns="http://www.w3.org/2000/svg">
<path fill-rule="evenodd" clip-rule="evenodd" d="M2.94187 2.55806C2.69779 2.31398 2.30206 2.31398 2.05799 2.55806C1.81391 2.80214 1.81391 3.19786 2.05799 3.44194L4.28104 5.665C3.25923 6.34883 2.49311 7.17008 1.96428 7.96973C1.3701 8.86821 1.04167 9.79275 1.04167 10.5C1.04167 11.0513 1.24103 11.7254 1.59412 12.4033C1.95305 13.0924 2.49201 13.8272 3.22191 14.5009C4.6892 15.8553 6.92307 16.9583 10 16.9583C11.8164 16.9583 13.3425 16.5739 14.5923 15.9762L17.058 18.4419C17.3021 18.686 17.6978 18.686 17.9419 18.4419C18.1859 18.1979 18.1859 17.8021 17.9419 17.5581L2.94187 2.55806ZM13.6457 15.0296L11.7232 13.1072C11.2292 13.4342 10.6364 13.625 9.99993 13.625C8.27404 13.625 6.87493 12.2259 6.87493 10.5C6.87493 9.86353 7.06572 9.27068 7.39274 8.77669L5.18503 6.56899C4.20068 7.18233 3.48282 7.93961 3.00691 8.65924C2.49018 9.4406 2.29167 10.1251 2.29167 10.5C2.29167 10.782 2.40481 11.2538 2.70276 11.8259C2.99488 12.3867 3.4455 13.0062 4.06976 13.5824C5.31081 14.728 7.2436 15.7083 10 15.7083C11.4343 15.7083 12.643 15.4429 13.6457 15.0296ZM8.30754 9.6915C8.19039 9.93619 8.12493 10.2102 8.12493 10.5C8.12493 11.5355 8.9644 12.375 9.99993 12.375C10.2897 12.375 10.5637 12.3095 10.8084 12.1924L8.30754 9.6915ZM10 5.29167C9.13285 5.29167 8.34913 5.38869 7.64443 5.55606C7.30859 5.63582 6.97168 5.42823 6.89192 5.0924C6.81216 4.75656 7.01975 4.41965 7.35558 4.33989C8.15811 4.14928 9.03892 4.04167 10 4.04167C13.0769 4.04167 15.3108 5.14466 16.7781 6.49908C17.508 7.17284 18.047 7.90757 18.4059 8.59671C18.759 9.27464 18.9583 9.94867 18.9583 10.5C18.9583 11.509 18.288 13.0042 17.0126 14.2759C16.7682 14.5196 16.3725 14.5191 16.1288 14.2746C15.885 14.0302 15.8856 13.6345 16.13 13.3907C17.2626 12.2615 17.7083 11.0659 17.7083 10.5C17.7083 10.218 17.5952 9.74619 17.2972 9.17413C17.0051 8.61326 16.5545 7.99383 15.9302 7.41759C14.6892 6.272 12.7564 5.29167 10 5.29167Z" fill="#737373"/>
</svg>
